<?xml version="1.0" encoding="UTF-8" standalone="no"?><!DOCTYPE svg PUBLIC "-//W3C//DTD SVG 1.1//EN" "http://www.w3.org/Graphics/SVG/1.1/DTD/svg11.dtd"><svg width="100%" height="100%" viewBox="0 0 2496 388" version="1.1" xmlns="http://www.w3.org/2000/svg" xmlns:xlink="http://www.w3.org/1999/xlink" xml:space="preserve" xmlns:serif="http://www.serif.com/" style="fill-rule:evenodd;clip-rule:evenodd;stroke-linejoin:round;stroke-miterlimit:2;"><g><path d="M0.002,112.964l7.37,-18.287l78.541,-44.676l10.134,16.898l-68.637,38.889l68.176,38.658l-7.37,18.519l-88.215,-50Z" style="fill:#be1e2d;"/><path d="M124.608,95.14l97.197,0l-3.225,19.445l-93.973,0l0,-19.445Z" style="fill:#be1e2d;"/><path d="M249.444,91.899c0,-34.877 11.209,-59.491 33.628,-73.843c11.823,-7.716 26.334,-11.574 43.532,-11.574c17.044,0 33.09,2.778 48.138,8.333c1.996,0.772 3.071,1.157 3.225,1.157l-6.679,20.371c-0.154,0 -1.19,-0.27 -3.109,-0.81c-1.919,-0.54 -3.839,-1.08 -5.758,-1.62c-1.919,-0.54 -4.415,-1.119 -7.486,-1.736c-3.071,-0.617 -5.988,-1.157 -8.752,-1.62c-6.142,-1.235 -12.668,-1.852 -19.578,-1.852c-17.198,0 -29.75,4.861 -37.658,14.583c-7.908,9.722 -11.862,26.08 -11.862,49.074c0,26.08 4.53,43.519 13.589,52.315c4.607,4.475 9.674,7.562 15.201,9.259c5.528,1.698 12.207,2.546 20.038,2.546c14.28,0 29.405,-2.855 45.374,-8.565l6.679,21.065l-5.988,1.852c-16.583,5.247 -33.628,7.87 -51.132,7.87c-22.879,0 -40.499,-7.33 -52.86,-21.991c-12.361,-14.661 -18.541,-36.266 -18.541,-64.815Z" style="fill:#dadada;"/><path d="M411.132,91.668c0,-13.889 -1.382,-26.389 -4.146,-37.5l19.347,-2.546l5.758,15.046c9.674,-11.42 20.576,-17.13 32.706,-17.13c8.138,0 14.472,1.929 19.002,5.787c4.53,3.858 6.795,9.336 6.795,16.435c0,7.099 -1.152,13.349 -3.455,18.75l-19.808,-2.546c0,-6.944 -0.653,-11.844 -1.958,-14.699c-1.305,-2.855 -3.992,-4.282 -8.061,-4.282c-4.069,0 -8.061,1.62 -11.977,4.861c-3.916,3.241 -7.025,6.867 -9.328,10.88l0,91.204l-24.875,0l0,-84.26Z" style="fill:#dadada;"/><path d="M528.138,0.001c3.839,-0 7.063,1.196 9.674,3.588c2.61,2.392 3.916,5.98 3.916,10.764c0,10.031 -5.221,15.046 -15.662,15.046c-3.685,0 -6.756,-1.196 -9.213,-3.588c-2.457,-2.392 -3.685,-5.903 -3.685,-10.532c0,-10.185 4.99,-15.278 14.971,-15.278Zm-13.129,175.927l0,-121.992l24.875,-3.241l0,125.232l-24.875,0Z" style="fill:#dadada;"/><path d="M570.748,169.678l5.297,-18.75c12.591,5.556 23.416,8.333 32.476,8.333c15.662,0 23.493,-5.324 23.493,-15.972c0,-8.333 -7.524,-15.278 -22.572,-20.833c-5.835,-2.161 -10.211,-3.897 -13.129,-5.208c-2.917,-1.312 -6.526,-3.357 -10.825,-6.134c-8.445,-5.556 -12.668,-13.928 -12.668,-25.116c0,-11.188 3.954,-19.985 11.862,-26.389c7.908,-6.404 18.618,-9.607 32.13,-9.607c13.666,0 25.413,2.315 35.24,6.944c1.843,0.772 2.841,1.157 2.994,1.157l-4.837,18.75c-11.209,-4.938 -21.19,-7.407 -29.942,-7.407c-15.355,0 -23.033,5.247 -23.033,15.741c0,3.086 0.806,5.44 2.418,7.06c1.612,1.62 2.879,2.778 3.8,3.472c0.921,0.694 2.457,1.543 4.607,2.546c2.15,1.003 3.724,1.698 4.722,2.083c0.998,0.386 2.879,1.119 5.643,2.199c2.764,1.08 5.566,2.122 8.407,3.125c2.841,1.003 5.835,2.353 8.983,4.051c3.148,1.698 6.488,4.012 10.019,6.944c7.063,5.864 10.595,14.815 10.595,26.852c0,8.179 -2.38,14.969 -7.14,20.371c-8.445,9.877 -22.572,14.815 -42.38,14.815c-13.205,0 -25.259,-3.009 -36.161,-9.028Z" style="fill:#dadada;"/><path d="M699.742,27.547l19.578,-2.546l0,31.713l35.7,0l-2.764,16.667l-32.937,0l0,62.038c0,8.333 1.267,14.391 3.8,18.171c2.534,3.781 6.488,5.671 11.862,5.671c5.374,0 11.44,-0.617 18.196,-1.852l2.994,16.898c-9.52,2.932 -18.733,4.398 -27.639,4.398c-12.438,0 -21.228,-3.318 -26.372,-9.954c-5.144,-6.636 -7.716,-16.05 -7.716,-28.241l0,-67.13l-17.274,0l0,-14.352l17.274,-2.315l5.297,-29.167Z" style="fill:#dadada;"/><path d="M801.546,0.001c3.839,-0 7.063,1.196 9.674,3.588c2.61,2.392 3.916,5.98 3.916,10.764c0,10.031 -5.221,15.046 -15.662,15.046c-3.685,0 -6.756,-1.196 -9.213,-3.588c-2.457,-2.392 -3.685,-5.903 -3.685,-10.532c0,-10.185 4.99,-15.278 14.971,-15.278Zm-13.129,175.927l0,-121.992l24.875,-3.241l0,125.232l-24.875,0Z" style="fill:#dadada;"/><path d="M952.41,59.955l0,86.575c0,5.401 0.614,8.989 1.843,10.764c1.228,1.775 4.223,2.662 8.983,2.662l0.921,14.583c-3.839,1.389 -7.908,2.083 -12.207,2.083c-11.977,0 -19.117,-5.478 -21.42,-16.435c-8.138,12.346 -20.153,18.519 -36.046,18.519c-15.892,0 -27.716,-5.941 -35.47,-17.824c-7.754,-11.883 -11.631,-27.199 -11.631,-45.949c0,-18.75 5.297,-34.337 15.892,-46.76c10.595,-12.423 24.798,-18.634 42.61,-18.634c7.217,0 15.624,1.119 25.221,3.357c9.597,2.238 16.699,4.591 21.305,7.06Zm-78.771,56.945c0,14.969 2.265,25.772 6.795,32.408c4.53,6.636 11.094,9.954 19.693,9.954c8.599,0 15.317,-3.048 20.153,-9.144c4.837,-6.096 7.255,-13.619 7.255,-22.57l0,-55.556c-5.988,-2.006 -12.821,-3.009 -20.499,-3.009c-11.67,0 -20.153,4.244 -25.451,12.732c-5.297,8.488 -7.946,20.216 -7.946,35.185Z" style="fill:#dadada;"/><path d="M997.317,91.668c0,-13.889 -1.382,-26.389 -4.146,-37.5l19.347,-2.546l4.376,11.574c12.898,-9.105 26.104,-13.658 39.616,-13.658c27.946,0 41.919,15.124 41.919,45.371l0,81.019l-24.875,0l0,-76.389c0,-20.371 -8.061,-30.556 -24.184,-30.556c-9.367,0 -18.426,3.318 -27.178,9.954l0,96.991l-24.875,0l0,-84.26Z" style="fill:#dadada;"/><path d="M1206.223,175.928l7.601,-165.048c10.441,-2.006 20.576,-3.009 30.403,-3.009c3.071,0 5.297,1.698 6.679,5.093l43.992,120.834l43.992,-120.834c1.382,-3.395 3.608,-5.093 6.679,-5.093c11.056,0 21.19,1.003 30.403,3.009l7.601,165.048l-25.105,0l-3.916,-141.899l-42.15,118.751c-12.898,2.161 -21.804,3.241 -26.718,3.241c-4.914,0 -7.985,-1.698 -9.213,-5.093l-41.228,-116.899l-3.916,141.899l-25.105,0Z" style="fill:#dadada;"/><path d="M1516.904,59.955l0,86.575c0,5.401 0.614,8.989 1.843,10.764c1.228,1.775 4.223,2.662 8.983,2.662l0.921,14.583c-3.839,1.389 -7.908,2.083 -12.207,2.083c-11.977,0 -19.117,-5.478 -21.42,-16.435c-8.138,12.346 -20.153,18.519 -36.046,18.519c-15.892,0 -27.716,-5.941 -35.47,-17.824c-7.754,-11.883 -11.631,-27.199 -11.631,-45.949c0,-18.75 5.297,-34.337 15.892,-46.76c10.595,-12.423 24.798,-18.634 42.61,-18.634c7.217,0 15.624,1.119 25.221,3.357c9.597,2.238 16.699,4.591 21.305,7.06Zm-78.771,56.945c0,14.969 2.265,25.772 6.795,32.408c4.53,6.636 11.094,9.954 19.693,9.954c8.599,0 15.317,-3.048 20.153,-9.144c4.837,-6.096 7.255,-13.619 7.255,-22.57l0,-55.556c-5.988,-2.006 -12.821,-3.009 -20.499,-3.009c-11.67,0 -20.153,4.244 -25.451,12.732c-5.297,8.488 -7.946,20.216 -7.946,35.185Z" style="fill:#dadada;"/><path d="M1561.812,91.668c0,-13.889 -1.382,-26.389 -4.146,-37.5l19.347,-2.546l4.376,11.574c12.898,-9.105 26.104,-13.658 39.616,-13.658c27.946,0 41.919,15.124 41.919,45.371l0,81.019l-24.875,0l0,-76.389c0,-20.371 -8.061,-30.556 -24.184,-30.556c-9.367,0 -18.426,3.318 -27.178,9.954l0,96.991l-24.875,0l0,-84.26Z" style="fill:#dadada;"/><path d="M1704.384,91.668c0,-13.889 -1.382,-26.389 -4.146,-37.5l19.347,-2.546l5.758,15.046c9.674,-11.42 20.576,-17.13 32.706,-17.13c8.138,0 14.472,1.929 19.002,5.787c4.53,3.858 6.795,9.336 6.795,16.435c0,7.099 -1.152,13.349 -3.455,18.75l-19.808,-2.546c0,-6.944 -0.653,-11.844 -1.958,-14.699c-1.305,-2.855 -3.992,-4.282 -8.061,-4.282c-4.069,0 -8.061,1.62 -11.977,4.861c-3.916,3.241 -7.025,6.867 -9.328,10.88l0,91.204l-24.875,0l0,-84.26Z" style="fill:#dadada;"/><path d="M1821.389,0.001c3.839,-0 7.063,1.196 9.674,3.588c2.61,2.392 3.916,5.98 3.916,10.764c0,10.031 -5.221,15.046 -15.662,15.046c-3.685,0 -6.756,-1.196 -9.213,-3.588c-2.457,-2.392 -3.685,-5.903 -3.685,-10.532c0,-10.185 4.99,-15.278 14.971,-15.278Zm-13.129,175.927l0,-121.992l24.875,-3.241l0,125.232l-24.875,0Z" style="fill:#dadada;"/><path d="M1972.253,60.418l0,140.51c0,3.549 0.883,5.98 2.649,7.292c1.766,1.312 4.491,1.968 8.177,1.968l2.073,15.046c-5.374,1.08 -9.789,1.62 -13.244,1.62c-3.455,0 -5.988,-0.116 -7.601,-0.347c-1.612,-0.231 -3.532,-0.926 -5.758,-2.083c-2.226,-1.157 -4.107,-2.739 -5.643,-4.745c-3.685,-4.784 -5.528,-12.346 -5.528,-22.685l0,-32.871c-2.917,3.704 -7.217,7.06 -12.898,10.07c-5.681,3.009 -12.438,4.514 -20.269,4.514c-13.205,0 -24.338,-5.015 -33.397,-15.046c-9.059,-10.031 -13.589,-25.425 -13.589,-46.181c0,-20.756 4.914,-37.269 14.741,-49.537c9.827,-12.269 24.645,-18.403 44.453,-18.403c15.201,0 30.48,3.627 45.835,10.88Zm-78.771,54.862c0,16.204 2.303,27.585 6.91,34.144c4.607,6.559 11.248,9.838 19.923,9.838c8.676,0 15.355,-3.086 20.038,-9.259c4.683,-6.173 7.025,-13.503 7.025,-21.991l0,-56.019c-5.528,-2.006 -11.977,-3.009 -19.347,-3.009c-12.438,0 -21.305,3.665 -26.603,10.995c-5.297,7.33 -7.946,19.097 -7.946,35.301Z" style="fill:#dadada;"/><path d="M2113.442,50.695l0,96.297c0,5.556 0.653,9.105 1.958,10.648c1.305,1.543 4.261,2.315 8.868,2.315l0.921,14.583c-3.839,1.389 -7.908,2.083 -12.207,2.083c-9.367,0 -15.969,-3.704 -19.808,-11.111c-9.981,8.796 -22.495,13.195 -37.543,13.195c-27.946,0 -41.919,-15.124 -41.919,-45.371l0,-79.399l24.875,-3.241l0,78.01c0,20.371 8.061,30.556 24.184,30.556c11.056,0 19.654,-3.241 25.796,-9.722l0,-95.603l24.875,-3.241Z" style="fill:#dadada;"/><path d="M2241.273,149.539l8.522,15.741c-2.61,2.469 -8.138,5.324 -16.583,8.565c-8.445,3.241 -17.505,4.861 -27.178,4.861c-17.198,0 -31.056,-5.247 -41.574,-15.741c-10.518,-10.494 -15.777,-26.235 -15.777,-47.223c0,-11.574 1.843,-21.798 5.528,-30.672c3.685,-8.874 8.445,-15.779 14.28,-20.718c11.977,-9.877 24.53,-14.815 37.658,-14.815c13.129,0 23.57,3.357 31.324,10.07c7.754,6.713 11.631,14.931 11.631,24.653c0,12.809 -6.065,23.264 -18.196,31.366c-12.13,8.102 -31.555,12.153 -58.272,12.153c0,7.099 2.956,14.12 8.868,21.065c5.912,6.944 14.664,10.417 26.257,10.417c11.593,0 22.764,-3.241 33.512,-9.722Zm-14.511,-63.195c0,-4.63 -1.727,-8.681 -5.182,-12.153c-3.455,-3.472 -8.33,-5.208 -14.626,-5.208c-10.134,0 -18.464,3.819 -24.99,11.458c-6.526,7.639 -9.866,17.631 -10.019,29.977c36.545,0 54.817,-8.025 54.817,-24.074Z" style="fill:#dadada;"/><path d="M2274.438,95.14l97.197,0l-3.225,19.445l-93.973,0l0,-19.445Z" style="fill:#be1e2d;"/><path d="M2495.32,100.001l-7.37,18.287l-78.541,44.676l-10.134,-16.898l68.637,-38.889l-68.176,-38.658l7.37,-18.519l88.215,50Z" style="fill:#be1e2d;"/><path d="M597.891,228.687l-64.274,158.598l1834.331,0.016l64.274,-158.598l-1834.331,-0.016Z" style="fill:url(#_Linear1);"/><path d="M1257.243,387.299l-1139.757,0l64.265,-158.588l1139.733,0l-64.241,158.588Z" style="fill:#be1e2d;"/><path d="M220.736,344.375l0,-80.471l45.261,0l0,10.73l-32.584,0l0,26.041l28.135,0l-1.557,10.059l-26.578,0l0,33.642l-12.678,0Z" style="fill:#fff;"/><path d="M277.444,303.692c0,-6.706 -0.667,-12.741 -2.002,-18.106l9.341,-1.229l2.78,7.265c4.671,-5.514 9.934,-8.271 15.791,-8.271c3.929,0 6.987,0.931 9.175,2.794c2.187,1.863 3.281,4.508 3.281,7.935c0,3.427 -0.556,6.445 -1.668,9.053l-9.564,-1.229c0,-3.353 -0.315,-5.719 -0.945,-7.097c-0.63,-1.378 -1.928,-2.068 -3.892,-2.068c-1.965,0 -3.892,0.782 -5.783,2.347c-1.891,1.565 -3.392,3.316 -4.504,5.253l0,44.036l-12.01,0l0,-40.683Z" style="fill:#fff;"/><path d="M347.949,283.351c7.265,0 13.271,2.552 18.015,7.656c4.745,5.104 7.117,12.611 7.117,22.521c0,9.91 -2.428,17.752 -7.284,23.527c-4.856,5.775 -12.14,8.662 -21.852,8.662c-7.265,0 -13.271,-2.589 -18.015,-7.768c-4.745,-5.178 -7.117,-12.723 -7.117,-22.633c0,-9.91 2.428,-17.715 7.284,-23.415c4.856,-5.7 12.14,-8.55 21.852,-8.55Zm-16.459,32.021c0,7.488 1.242,12.853 3.725,16.094c2.484,3.241 6.209,4.862 11.176,4.862c4.967,0 8.544,-1.937 10.731,-5.812c2.187,-3.875 3.281,-9.556 3.281,-17.044c0,-7.488 -1.242,-12.816 -3.725,-15.983c-2.484,-3.167 -5.912,-4.75 -10.287,-4.75c-5.56,0 -9.434,1.9 -11.621,5.7c-2.187,3.8 -3.281,9.444 -3.281,16.933Z" style="fill:#fff;"/><path d="M386.537,303.692c0,-6.706 -0.667,-12.741 -2.002,-18.106l9.341,-1.229l2.113,5.588c6.228,-4.396 12.603,-6.594 19.128,-6.594c13.493,0 20.24,7.302 20.24,21.906l0,39.118l-12.01,0l0,-36.883c0,-9.835 -3.892,-14.753 -11.677,-14.753c-4.522,0 -8.897,1.602 -13.122,4.806l0,46.83l-12.01,0l0,-40.683Z" style="fill:#fff;"/><path d="M456.042,272.733l9.453,-1.229l0,15.312l17.237,0l-1.334,8.047l-15.903,0l0,29.953c0,4.024 0.612,6.948 1.835,8.774c1.223,1.826 3.132,2.738 5.727,2.738c2.595,0 5.523,-0.298 8.785,-0.894l1.446,8.159c-4.597,1.416 -9.045,2.124 -13.345,2.124c-6.005,0 -10.25,-1.602 -12.733,-4.806c-2.484,-3.204 -3.725,-7.749 -3.725,-13.635l0,-32.412l-8.34,0l0,-6.929l8.34,-1.118l2.558,-14.083Z" style="fill:#fff;"/><path d="M491.85,305.369l46.929,0l-1.557,9.388l-45.372,0l0,-9.388Z" style="fill:#fff;"/><path d="M554.459,344.375l0,-80.471l46.373,0l0,10.394l-33.696,0l0,24.365l29.247,0l0,9.724l-29.247,0l0,25.594l35.92,0l-1.557,10.394l-47.04,0Z" style="fill:#fff;"/><path d="M617.18,303.692c0,-6.706 -0.667,-12.741 -2.002,-18.106l9.341,-1.229l2.113,5.588c6.228,-4.396 12.603,-6.594 19.128,-6.594c13.493,0 20.24,7.302 20.24,21.906l0,39.118l-12.01,0l0,-36.883c0,-9.835 -3.892,-14.753 -11.677,-14.753c-4.522,0 -8.897,1.602 -13.122,4.806l0,46.83l-12.01,0l0,-40.683Z" style="fill:#fff;"/><path d="M727.942,258.539l0,71.866c0,2.682 0.315,4.396 0.945,5.141c0.63,0.745 2.057,1.118 4.281,1.118l0.445,7.041c-1.853,0.671 -3.818,1.006 -5.894,1.006c-5.783,0 -9.23,-2.645 -10.342,-7.935c-3.929,5.961 -9.786,8.941 -17.571,8.941c-6.672,0 -12.103,-2.552 -16.292,-7.656c-4.189,-5.104 -6.283,-12.611 -6.283,-22.521c0,-9.91 2.428,-17.752 7.284,-23.527c4.856,-5.775 12.14,-8.662 21.852,-8.662c2.966,0 6.153,0.41 9.564,1.229l0,-24.477l12.01,-1.565Zm-34.696,73.039c2.224,3.167 5.412,4.75 9.564,4.75c4.152,0 7.377,-1.49 9.675,-4.471c2.298,-2.98 3.447,-6.52 3.447,-10.618l0,-27.047c-2.521,-0.969 -5.82,-1.453 -9.897,-1.453c-6.005,0 -10.194,1.937 -12.566,5.812c-2.372,3.875 -3.559,9.556 -3.559,17.044c0,7.488 1.112,12.816 3.336,15.983Z" style="fill:#fff;"/><path d="M821.911,258.539l0,71.866c0,2.682 0.315,4.396 0.945,5.141c0.63,0.745 2.057,1.118 4.281,1.118l0.445,7.041c-1.853,0.671 -3.818,1.006 -5.894,1.006c-5.783,0 -9.23,-2.645 -10.342,-7.935c-3.929,5.961 -9.786,8.941 -17.571,8.941c-6.672,0 -12.103,-2.552 -16.292,-7.656c-4.189,-5.104 -6.283,-12.611 -6.283,-22.521c0,-9.91 2.428,-17.752 7.284,-23.527c4.856,-5.775 12.14,-8.662 21.852,-8.662c2.966,0 6.153,0.41 9.564,1.229l0,-24.477l12.01,-1.565Zm-34.696,73.039c2.224,3.167 5.412,4.75 9.564,4.75c4.152,0 7.377,-1.49 9.675,-4.471c2.298,-2.98 3.447,-6.52 3.447,-10.618l0,-27.047c-2.521,-0.969 -5.82,-1.453 -9.897,-1.453c-6.005,0 -10.194,1.937 -12.566,5.812c-2.372,3.875 -3.559,9.556 -3.559,17.044c0,7.488 1.112,12.816 3.336,15.983Z" style="fill:#fff;"/><path d="M880.628,331.634l4.115,7.6c-1.26,1.192 -3.929,2.571 -8.007,4.135c-4.078,1.565 -8.452,2.347 -13.122,2.347c-8.303,0 -14.994,-2.533 -20.073,-7.6c-5.078,-5.067 -7.618,-12.667 -7.618,-22.8c0,-5.588 0.89,-10.525 2.669,-14.809c1.779,-4.284 4.078,-7.619 6.895,-10.003c5.783,-4.769 11.843,-7.153 18.182,-7.153c6.339,0 11.38,1.621 15.124,4.862c3.744,3.241 5.616,7.209 5.616,11.903c0,6.184 -2.928,11.232 -8.785,15.144c-5.857,3.912 -15.235,5.868 -28.135,5.868c0,3.427 1.427,6.818 4.281,10.171c2.854,3.353 7.08,5.029 12.678,5.029c5.597,0 10.991,-1.565 16.181,-4.694Zm-7.006,-30.512c0,-2.235 -0.834,-4.191 -2.502,-5.868c-1.668,-1.676 -4.022,-2.515 -7.062,-2.515c-4.893,0 -8.915,1.844 -12.066,5.532c-3.151,3.688 -4.763,8.513 -4.837,14.474c17.645,0 26.467,-3.875 26.467,-11.624Z" style="fill:#fff;"/><path d="M911.766,344.375l-23.576,-58.118l11.677,-2.124l11.009,28.277c4.003,10.804 6.079,16.988 6.228,18.553l0.778,0c0.148,-1.49 2.261,-7.675 6.339,-18.553l10.12,-28.277l11.677,2.124l-23.576,58.118l-10.676,0Z" style="fill:#fff;"/><path d="M994.726,331.634l4.115,7.6c-1.26,1.192 -3.929,2.571 -8.007,4.135c-4.078,1.565 -8.452,2.347 -13.122,2.347c-8.303,0 -14.994,-2.533 -20.073,-7.6c-5.078,-5.067 -7.618,-12.667 -7.618,-22.8c0,-5.588 0.89,-10.525 2.669,-14.809c1.779,-4.284 4.078,-7.619 6.895,-10.003c5.783,-4.769 11.843,-7.153 18.182,-7.153c6.339,0 11.38,1.621 15.124,4.862c3.744,3.241 5.616,7.209 5.616,11.903c0,6.184 -2.928,11.232 -8.785,15.144c-5.857,3.912 -15.235,5.868 -28.135,5.868c0,3.427 1.427,6.818 4.281,10.171c2.854,3.353 7.08,5.029 12.678,5.029c5.597,0 10.991,-1.565 16.181,-4.694Zm-7.006,-30.512c0,-2.235 -0.834,-4.191 -2.502,-5.868c-1.668,-1.676 -4.022,-2.515 -7.062,-2.515c-4.893,0 -8.915,1.844 -12.066,5.532c-3.151,3.688 -4.763,8.513 -4.837,14.474c17.645,0 26.467,-3.875 26.467,-11.624Z" style="fill:#fff;"/><path d="M1011.741,260.104l12.01,-1.565l0,67.395c0,6.929 1.965,10.394 5.894,10.394c0.964,0 2.743,-0.261 5.338,-0.782l1.446,8.271c-0.074,0 -0.389,0.112 -0.945,0.335c-0.556,0.224 -1.205,0.447 -1.946,0.671c-1.853,0.596 -4.115,0.894 -6.784,0.894c-5.116,0 -8.897,-1.732 -11.343,-5.197c-2.447,-3.465 -3.67,-8.252 -3.67,-14.362l0,-66.054Z" style="fill:#fff;"/><path d="M1068.011,283.351c7.265,0 13.271,2.552 18.015,7.656c4.745,5.104 7.117,12.611 7.117,22.521c0,9.91 -2.428,17.752 -7.284,23.527c-4.856,5.775 -12.14,8.662 -21.852,8.662c-7.265,0 -13.271,-2.589 -18.015,-7.768c-4.745,-5.178 -7.117,-12.723 -7.117,-22.633c0,-9.91 2.428,-17.715 7.284,-23.415c4.856,-5.7 12.14,-8.55 21.852,-8.55Zm-16.459,32.021c0,7.488 1.242,12.853 3.725,16.094c2.484,3.241 6.209,4.862 11.176,4.862c4.967,0 8.544,-1.937 10.731,-5.812c2.187,-3.875 3.281,-9.556 3.281,-17.044c0,-7.488 -1.242,-12.816 -3.725,-15.983c-2.484,-3.167 -5.912,-4.75 -10.287,-4.75c-5.56,0 -9.434,1.9 -11.621,5.7c-2.187,3.8 -3.281,9.444 -3.281,16.933Z" style="fill:#fff;"/><path d="M1106.6,368.069l0,-67.395c0,-4.173 -0.667,-9.202 -2.002,-15.088l9.341,-1.229l2.002,4.918c5.486,-3.949 11.195,-5.924 17.126,-5.924c7.562,0 13.493,2.776 17.793,8.327c4.3,5.551 6.45,13.077 6.45,22.577c0,9.5 -2.298,17.119 -6.895,22.856c-4.597,5.737 -10.898,8.606 -18.905,8.606c-4.819,0 -9.119,-1.006 -12.9,-3.018l0,25.371l-12.01,0Zm23.465,-75.33c-3.484,0 -7.303,1.378 -11.454,4.135l0,36.436c2.966,2.012 6.45,3.018 10.453,3.018c5.486,0 9.453,-1.751 11.899,-5.253c2.447,-3.502 3.67,-9.239 3.67,-17.212c0,-7.973 -1.223,-13.486 -3.67,-16.541c-2.447,-3.055 -6.079,-4.582 -10.898,-4.582Z" style="fill:#fff;"/><path d="M1209.689,331.634l4.115,7.6c-1.26,1.192 -3.929,2.571 -8.007,4.135c-4.078,1.565 -8.452,2.347 -13.122,2.347c-8.303,0 -14.994,-2.533 -20.073,-7.6c-5.078,-5.067 -7.618,-12.667 -7.618,-22.8c0,-5.588 0.89,-10.525 2.669,-14.809c1.779,-4.284 4.078,-7.619 6.895,-10.003c5.783,-4.769 11.843,-7.153 18.182,-7.153c6.339,0 11.38,1.621 15.124,4.862c3.744,3.241 5.616,7.209 5.616,11.903c0,6.184 -2.928,11.232 -8.785,15.144c-5.857,3.912 -15.235,5.868 -28.135,5.868c0,3.427 1.427,6.818 4.281,10.171c2.854,3.353 7.08,5.029 12.678,5.029c5.597,0 10.991,-1.565 16.181,-4.694Zm-7.006,-30.512c0,-2.235 -0.834,-4.191 -2.502,-5.868c-1.668,-1.676 -4.022,-2.515 -7.062,-2.515c-4.893,0 -8.915,1.844 -12.066,5.532c-3.151,3.688 -4.763,8.513 -4.837,14.474c17.645,0 26.467,-3.875 26.467,-11.624Z" style="fill:#fff;"/><path d="M1226.703,303.692c0,-6.706 -0.667,-12.741 -2.002,-18.106l9.341,-1.229l2.78,7.265c4.671,-5.514 9.934,-8.271 15.791,-8.271c3.929,0 6.987,0.931 9.175,2.794c2.187,1.863 3.281,4.508 3.281,7.935c0,3.427 -0.556,6.445 -1.668,9.053l-9.564,-1.229c0,-3.353 -0.315,-5.719 -0.945,-7.097c-0.63,-1.378 -1.928,-2.068 -3.892,-2.068c-1.965,0 -3.892,0.782 -5.783,2.347c-1.891,1.565 -3.392,3.316 -4.504,5.253l0,44.036l-12.01,0l0,-40.683Z" style="fill:#fff;"/><path d="M1341.802,341.581l-17.237,-76.895l13.234,-1.565l14.012,72.089l12.233,-51.412c0.371,-1.639 1.538,-2.459 3.503,-2.459c1.965,0 4.17,0.186 6.617,0.559c2.447,0.373 4.003,0.708 4.671,1.006l12.789,51.859l13.79,-71.642l13.234,1.565l-17.904,78.907c-0.816,0.373 -2.854,0.726 -6.116,1.062c-3.262,0.335 -6.172,0.503 -8.73,0.503c-2.558,0 -4.096,-1.192 -4.615,-3.577l-9.675,-44.371l-10.231,46.383c-0.816,0.373 -2.873,0.726 -6.172,1.062c-3.299,0.335 -6.246,0.503 -8.841,0.503c-2.595,0 -4.115,-1.192 -4.559,-3.577Z" style="fill:#1d2935;"/><path d="M1464.55,331.634l4.115,7.6c-1.26,1.192 -3.929,2.571 -8.007,4.135c-4.078,1.565 -8.452,2.347 -13.122,2.347c-8.303,0 -14.994,-2.533 -20.073,-7.6c-5.078,-5.067 -7.618,-12.667 -7.618,-22.8c0,-5.588 0.89,-10.525 2.669,-14.809c1.779,-4.284 4.078,-7.619 6.895,-10.003c5.783,-4.769 11.843,-7.153 18.182,-7.153c6.339,0 11.38,1.621 15.124,4.862c3.744,3.241 5.616,7.209 5.616,11.903c0,6.184 -2.928,11.232 -8.785,15.144c-5.857,3.912 -15.235,5.868 -28.135,5.868c0,3.427 1.427,6.818 4.281,10.171c2.854,3.353 7.08,5.029 12.678,5.029c5.597,0 10.991,-1.565 16.181,-4.694Zm-7.006,-30.512c0,-2.235 -0.834,-4.191 -2.502,-5.868c-1.668,-1.676 -4.022,-2.515 -7.062,-2.515c-4.893,0 -8.915,1.844 -12.066,5.532c-3.151,3.688 -4.763,8.513 -4.837,14.474c17.645,0 26.467,-3.875 26.467,-11.624Z" style="fill:#1d2935;"/><path d="M1481.565,340.351l0,-80.248l12.01,-1.565l0,28.389c4.893,-2.384 10.12,-3.577 15.68,-3.577c6.672,0 12.177,2.608 16.514,7.824c4.337,5.216 6.506,12.741 6.506,22.577c0,9.835 -2.428,17.622 -7.284,23.359c-4.856,5.737 -12.14,8.606 -21.852,8.606c-3.633,0 -7.544,-0.577 -11.732,-1.732c-4.189,-1.155 -7.469,-2.366 -9.842,-3.632Zm38.033,-26.656c0,-7.414 -1.205,-12.76 -3.614,-16.038c-2.409,-3.278 -5.838,-4.918 -10.287,-4.918c-4.448,0 -8.489,1.043 -12.122,3.129l0,39.006c2.521,0.969 5.783,1.453 9.786,1.453c6.079,0 10.305,-1.919 12.678,-5.756c2.372,-3.837 3.559,-9.463 3.559,-16.877Z" style="fill:#1d2935;"/><path d="M1575.868,344.375l0,-79.913c8.971,-0.82 19.09,-1.229 30.359,-1.229c9.564,0 17.404,3.316 23.52,9.947c6.116,6.631 9.175,16.523 9.175,29.674c0,13.151 -3.151,23.471 -9.453,30.959c-6.302,7.488 -15.94,11.232 -28.914,11.232c-12.974,0 -21.203,-0.224 -24.688,-0.671Zm12.678,-9.835c4.448,0.298 9.341,0.447 14.679,0.447c8.378,0 14.253,-2.738 17.626,-8.215c3.373,-5.477 5.06,-13.505 5.06,-24.086c0,-10.581 -1.909,-18.125 -5.727,-22.633c-3.818,-4.508 -9.137,-6.762 -15.958,-6.762c-3.04,0 -8.266,0.224 -15.68,0.671l0,60.577Z" style="fill:#1d2935;"/><path d="M1691.515,331.634l4.115,7.6c-1.26,1.192 -3.929,2.571 -8.007,4.135c-4.078,1.565 -8.452,2.347 -13.122,2.347c-8.303,0 -14.994,-2.533 -20.073,-7.6c-5.078,-5.067 -7.618,-12.667 -7.618,-22.8c0,-5.588 0.89,-10.525 2.669,-14.809c1.779,-4.284 4.078,-7.619 6.895,-10.003c5.783,-4.769 11.843,-7.153 18.182,-7.153c6.339,0 11.38,1.621 15.124,4.862c3.744,3.241 5.616,7.209 5.616,11.903c0,6.184 -2.928,11.232 -8.785,15.144c-5.857,3.912 -15.235,5.868 -28.135,5.868c0,3.427 1.427,6.818 4.281,10.171c2.854,3.353 7.08,5.029 12.678,5.029c5.597,0 10.991,-1.565 16.181,-4.694Zm-7.006,-30.512c0,-2.235 -0.834,-4.191 -2.502,-5.868c-1.668,-1.676 -4.022,-2.515 -7.062,-2.515c-4.893,0 -8.915,1.844 -12.066,5.532c-3.151,3.688 -4.763,8.513 -4.837,14.474c17.645,0 26.467,-3.875 26.467,-11.624Z" style="fill:#1d2935;"/><path d="M1701.19,341.357l2.558,-9.053c6.079,2.682 11.306,4.024 15.68,4.024c7.562,0 11.343,-2.571 11.343,-7.712c0,-4.024 -3.633,-7.377 -10.898,-10.059c-2.817,-1.043 -4.93,-1.881 -6.339,-2.515c-1.409,-0.633 -3.151,-1.621 -5.227,-2.962c-4.078,-2.682 -6.116,-6.725 -6.116,-12.127c0,-5.402 1.909,-9.649 5.727,-12.741c3.818,-3.092 8.989,-4.638 15.513,-4.638c6.598,0 12.27,1.118 17.015,3.353c0.89,0.373 1.372,0.559 1.446,0.559l-2.335,9.053c-5.412,-2.384 -10.231,-3.577 -14.457,-3.577c-7.414,0 -11.121,2.533 -11.121,7.6c0,1.49 0.389,2.627 1.168,3.409c0.778,0.782 1.39,1.341 1.835,1.676c0.445,0.335 1.186,0.745 2.224,1.229c1.038,0.484 1.798,0.82 2.28,1.006c0.482,0.186 1.39,0.54 2.725,1.062c1.334,0.522 2.687,1.025 4.059,1.509c1.372,0.484 2.817,1.136 4.337,1.956c1.52,0.82 3.132,1.937 4.837,3.353c3.41,2.831 5.116,7.153 5.116,12.965c0,3.949 -1.149,7.228 -3.447,9.835c-4.078,4.769 -10.898,7.153 -20.462,7.153c-6.376,0 -12.196,-1.453 -17.459,-4.359Z" style="fill:#1d2935;"/><path d="M1762.02,259.433c1.853,-0 3.41,0.577 4.671,1.732c1.26,1.155 1.891,2.887 1.891,5.197c0,4.843 -2.521,7.265 -7.562,7.265c-1.779,0 -3.262,-0.577 -4.448,-1.732c-1.186,-1.155 -1.779,-2.85 -1.779,-5.085c0,-4.918 2.409,-7.377 7.228,-7.377Zm-6.339,84.942l0,-58.901l12.01,-1.565l0,60.465l-12.01,0Z" style="fill:#1d2935;"/><path d="M1831.858,288.716l0,52.083c0,9.09 -2.354,16.057 -7.062,20.9c-4.708,4.843 -11.399,7.265 -20.073,7.265c-5.338,0 -9.323,-0.373 -11.955,-1.118c-2.632,-0.745 -4.559,-1.323 -5.783,-1.732c-1.223,-0.41 -1.909,-0.615 -2.057,-0.615l2.558,-9.053c5.041,1.863 9.49,2.794 13.345,2.794c3.855,0 6.747,-0.224 8.674,-0.671c1.928,-0.447 3.744,-1.341 5.449,-2.682c3.262,-2.533 4.893,-8.047 4.893,-16.541l0,-1.788c-1.334,2.086 -3.373,3.968 -6.116,5.644c-2.743,1.676 -6.042,2.515 -9.897,2.515c-6.376,0 -11.751,-2.422 -16.125,-7.265c-4.374,-4.843 -6.561,-12.276 -6.561,-22.297c0,-10.022 2.372,-17.994 7.117,-23.918c4.745,-5.924 11.899,-8.885 21.463,-8.885c7.488,0 14.865,1.788 22.13,5.365Zm-38.033,26.377c0,7.824 1.112,13.319 3.336,16.485c2.224,3.167 5.431,4.75 9.619,4.75c4.189,0 7.414,-1.49 9.675,-4.471c2.261,-2.98 3.392,-6.52 3.392,-10.618l0,-27.047c-2.669,-0.969 -5.783,-1.453 -9.341,-1.453c-6.005,0 -10.287,1.77 -12.844,5.309c-2.558,3.539 -3.837,9.221 -3.837,17.044Z" style="fill:#1d2935;"/><path d="M1851.096,303.692c0,-6.706 -0.667,-12.741 -2.002,-18.106l9.341,-1.229l2.113,5.588c6.228,-4.396 12.603,-6.594 19.128,-6.594c13.493,0 20.24,7.302 20.24,21.906l0,39.118l-12.01,0l0,-36.883c0,-9.835 -3.892,-14.753 -11.677,-14.753c-4.522,0 -8.897,1.602 -13.122,4.806l0,46.83l-12.01,0l0,-40.683Z" style="fill:#1d2935;"/><path d="M1955.853,331.634l4.115,7.6c-1.26,1.192 -3.929,2.571 -8.007,4.135c-4.078,1.565 -8.452,2.347 -13.122,2.347c-8.303,0 -14.994,-2.533 -20.073,-7.6c-5.078,-5.067 -7.618,-12.667 -7.618,-22.8c0,-5.588 0.89,-10.525 2.669,-14.809c1.779,-4.284 4.078,-7.619 6.895,-10.003c5.783,-4.769 11.843,-7.153 18.182,-7.153c6.339,0 11.38,1.621 15.124,4.862c3.744,3.241 5.616,7.209 5.616,11.903c0,6.184 -2.928,11.232 -8.785,15.144c-5.857,3.912 -15.235,5.868 -28.135,5.868c0,3.427 1.427,6.818 4.281,10.171c2.854,3.353 7.08,5.029 12.678,5.029c5.597,0 10.991,-1.565 16.181,-4.694Zm-7.006,-30.512c0,-2.235 -0.834,-4.191 -2.502,-5.868c-1.668,-1.676 -4.022,-2.515 -7.062,-2.515c-4.893,0 -8.915,1.844 -12.066,5.532c-3.151,3.688 -4.763,8.513 -4.837,14.474c17.645,0 26.467,-3.875 26.467,-11.624Z" style="fill:#1d2935;"/><path d="M1972.868,303.692c0,-6.706 -0.667,-12.741 -2.002,-18.106l9.341,-1.229l2.78,7.265c4.671,-5.514 9.934,-8.271 15.791,-8.271c3.929,0 6.987,0.931 9.175,2.794c2.187,1.863 3.281,4.508 3.281,7.935c0,3.427 -0.556,6.445 -1.668,9.053l-9.564,-1.229c0,-3.353 -0.315,-5.719 -0.945,-7.097c-0.63,-1.378 -1.928,-2.068 -3.892,-2.068c-1.965,0 -3.892,0.782 -5.783,2.347c-1.891,1.565 -3.392,3.316 -4.504,5.253l0,44.036l-12.01,0l0,-40.683Z" style="fill:#1d2935;"/><path d="M2048.154,320.122l0,-56.218l12.678,0l0,54.206c0,5.365 1.316,9.631 3.948,12.797c2.632,3.167 6.691,4.75 12.177,4.75c11.269,0 16.903,-5.812 16.903,-17.435l0,-54.318l12.678,0l0,52.306c0,9.016 -2.558,16.187 -7.673,21.515c-5.116,5.328 -12.492,7.991 -22.13,7.991c-9.638,0 -16.811,-2.291 -21.518,-6.874c-4.708,-4.582 -7.062,-10.823 -7.062,-18.721Z" style="fill:#1d2935;"/><rect x="2125.554" y="263.904" width="12.678" height="80.471" style="fill:#1d2935;"/><path d="M2160.584,349.963l-8.674,0l28.469,-86.06l8.674,0l-28.469,86.06Z" style="fill:#1d2935;"/><path d="M2200.396,320.122l0,-56.218l12.678,0l0,54.206c0,5.365 1.316,9.631 3.948,12.797c2.632,3.167 6.691,4.75 12.177,4.75c11.269,0 16.903,-5.812 16.903,-17.435l0,-54.318l12.678,0l0,52.306c0,9.016 -2.558,16.187 -7.673,21.515c-5.116,5.328 -12.492,7.991 -22.13,7.991c-9.638,0 -16.811,-2.291 -21.518,-6.874c-4.708,-4.582 -7.062,-10.823 -7.062,-18.721Z" style="fill:#1d2935;"/><path d="M2269.455,344.375l26.134,-41.577l-24.577,-38.224l13.567,-1.341l20.128,32.189l19.239,-32.189l13.345,1.341l-25.021,39.789l25.8,40.012l-14.457,0l-20.351,-32.524l-19.461,32.524l-14.346,0Z" style="fill:#1d2935;"/></g><defs><linearGradient id="_Linear1" x1="0" y1="0" x2="1" y2="0" gradientUnits="userSpaceOnUse" gradientTransform="matrix(0.000086,147.906289,147.906289,-0.000086,1482.917718,224.353419)"><stop offset="0" style="stop-color:#70cde2;stop-opacity:1"/><stop offset="0.03" style="stop-color:#70cde2;stop-opacity:1"/><stop offset="0.92" style="stop-color:#00aca4;stop-opacity:1"/><stop offset="1" style="stop-color:#00aca4;stop-opacity:1"/></linearGradient></defs></svg>