<?xml version="1.0" encoding="UTF-8" standalone="no"?>
<!DOCTYPE svg PUBLIC "-//W3C//DTD SVG 1.1//EN" "http://www.w3.org/Graphics/SVG/1.1/DTD/svg11.dtd">
<svg width="100%" height="100%" viewBox="0 0 16 16" version="1.1" xmlns="http://www.w3.org/2000/svg" xmlns:xlink="http://www.w3.org/1999/xlink" xml:space="preserve" xmlns:serif="http://www.serif.com/" style="fill-rule:evenodd;clip-rule:evenodd;stroke-linejoin:round;stroke-miterlimit:2;">
    <g transform="matrix(1,0,0,1,-418.650978,-3293.276797)">
        <g transform="matrix(1,0,0,0.802468,0,0)">
            <g transform="matrix(0.017895,0,0,0.0223,408.155945,4091.788463)">
                <path d="M776.056,1109.49C776.056,1019.04 775.961,928.589 776.21,838.137C776.233,829.621 774.878,825.769 764.947,825.865C713.24,826.364 661.525,826.261 609.815,825.927C601.831,825.876 600.01,828.559 600.017,836.074C600.199,1017.72 600.218,1199.36 599.973,1381C599.961,1389.45 602.422,1391.49 610.593,1391.43C661.563,1391.07 712.541,1390.95 763.508,1391.51C773.83,1391.62 776.31,1388.61 776.269,1378.63C775.905,1288.92 776.056,1199.21 776.056,1109.49ZM790.113,645.921C790.056,590.419 744.16,544.68 688.469,544.626C632.378,544.571 586.304,590.732 586.487,646.8C586.668,702.249 632.779,748.174 688.252,748.155C744.446,748.136 790.17,702.245 790.113,645.921ZM1055.44,902.247C1055.44,880.568 1055.11,858.882 1055.61,837.215C1055.81,828.716 1053.49,825.813 1044.51,825.892C995.739,826.325 946.96,826.283 898.186,825.921C889.702,825.858 886.76,827.938 886.772,836.911C887.016,1018.25 887.009,1199.6 886.782,1380.94C886.771,1389.27 889.149,1391.49 897.385,1391.43C948.744,1391.07 1000.11,1391.01 1051.47,1391.47C1060.8,1391.55 1063.09,1388.86 1063.06,1379.72C1062.72,1288.13 1062.89,1196.53 1062.81,1104.94C1062.8,1090.14 1063.67,1075.45 1065.51,1060.76C1073.22,999.273 1104.67,969.332 1165.13,966.139C1209.42,963.802 1239.68,985.336 1251.87,1027.61C1258.49,1050.56 1260,1074.14 1260.07,1097.75C1260.38,1191.93 1260.31,1286.11 1260.02,1380.29C1260,1388.77 1261.93,1391.55 1270.9,1391.47C1321.89,1391.02 1372.89,1391.03 1423.88,1391.45C1433,1391.53 1435.6,1389.1 1435.58,1379.83C1435.36,1280.85 1435.82,1181.87 1435.65,1082.9C1435.57,1035.97 1433.18,989.196 1420.26,943.634C1403.02,882.884 1366.88,840.073 1304.69,822.09C1277.5,814.23 1249.62,812.195 1221.42,811.956C1170.11,811.521 1126.15,829.188 1089,864.208C1076.91,875.599 1067.21,889.025 1055.44,902.247Z" style="fill:rgb(160,196,216);"/>
            </g>
        </g>
    </g>
</svg>
