<?xml version="1.0" encoding="UTF-8" standalone="no"?>
<!DOCTYPE svg PUBLIC "-//W3C//DTD SVG 1.1//EN" "http://www.w3.org/Graphics/SVG/1.1/DTD/svg11.dtd">
<svg width="100%" height="100%" viewBox="0 0 32 32" version="1.1" xmlns="http://www.w3.org/2000/svg" xmlns:xlink="http://www.w3.org/1999/xlink" xml:space="preserve" xmlns:serif="http://www.serif.com/" style="fill-rule:evenodd;clip-rule:evenodd;stroke-linejoin:round;stroke-miterlimit:2;">
    <g transform="matrix(1,0,0,1,0.594243,-11.914808)">
        <g transform="matrix(0.285983,0,0,0.285983,-68.422049,-5.317962)">
            <path d="M239.252,74.544L240.175,72.254L250.014,66.657L251.283,68.774L242.685,73.645L251.225,78.488L250.302,80.807L239.252,74.544Z" style="fill:rgb(190,30,45);fill-rule:nonzero;"/>
        </g>
        <g transform="matrix(0.285983,0,0,0.285983,-68.422049,-5.317962)">
            <path d="M254.861,72.312L267.036,72.312L266.632,74.747L254.861,74.747L254.861,72.312Z" style="fill:rgb(190,30,45);fill-rule:nonzero;"/>
        </g>
    </g>
    <g transform="matrix(0.71028,0,0,0.686582,-191.535043,-34.066911)">
        <path d="M270.498,71.906C270.498,67.537 271.902,64.454 274.71,62.656C276.191,61.689 278.009,61.206 280.163,61.206C282.298,61.206 284.308,61.554 286.193,62.25C286.443,62.346 286.578,62.395 286.597,62.395L285.76,64.946C285.741,64.946 285.611,64.913 285.371,64.845C285.13,64.777 284.89,64.71 284.65,64.642C284.409,64.574 284.097,64.502 283.712,64.425C283.327,64.347 282.962,64.28 282.616,64.222C281.846,64.067 281.029,63.99 280.163,63.99C278.009,63.99 276.437,64.599 275.446,65.816C274.455,67.034 273.96,69.083 273.96,71.964C273.96,75.23 274.528,77.415 275.662,78.517C276.239,79.077 276.874,79.464 277.567,79.677C278.259,79.889 279.096,79.996 280.077,79.996C281.865,79.996 283.76,79.638 285.76,78.923L286.597,81.561L285.847,81.793C283.77,82.451 281.635,82.779 279.442,82.779C276.576,82.779 274.369,81.861 272.821,80.025C271.272,78.188 270.498,75.482 270.498,71.906Z" style="fill:white;fill-rule:nonzero;"/>
    </g>
    <g transform="matrix(0.71028,0,0,0.686582,-262.792775,-34.066911)">
        <path d="M390.346,82.431L391.298,61.757C392.606,61.506 393.875,61.38 395.106,61.38C395.491,61.38 395.77,61.593 395.943,62.018L401.454,77.154L406.964,62.018C407.137,61.593 407.416,61.38 407.801,61.38C409.186,61.38 410.455,61.506 411.609,61.757L412.561,82.431L409.417,82.431L408.926,64.657L403.646,79.532C402.031,79.802 400.915,79.938 400.3,79.938C399.684,79.938 399.299,79.725 399.146,79.3L393.981,64.657L393.491,82.431L390.346,82.431Z" style="fill:white;fill-rule:nonzero;"/>
    </g>
    <g transform="matrix(1,0,0,1,0.043901,10.577529)">
        <g transform="matrix(0.285983,0,0,0.285983,-127.010713,-5.317962)">
            <path d="M524.153,72.312L536.328,72.312L535.924,74.747L524.153,74.747L524.153,72.312Z" style="fill:rgb(190,30,45);fill-rule:nonzero;"/>
        </g>
        <g transform="matrix(0.285983,0,0,0.285983,-127.010713,-5.317962)">
            <path d="M551.821,72.92L550.898,75.211L541.06,80.807L539.79,78.691L548.388,73.819L539.848,68.977L540.771,66.657L551.821,72.92Z" style="fill:rgb(190,30,45);fill-rule:nonzero;"/>
        </g>
    </g>
</svg>
