<?xml version="1.0" encoding="UTF-8" standalone="no"?>
<!DOCTYPE svg PUBLIC "-//W3C//DTD SVG 1.1//EN" "http://www.w3.org/Graphics/SVG/1.1/DTD/svg11.dtd">
<svg width="100%" height="100%" viewBox="0 0 26 26" version="1.1" xmlns="http://www.w3.org/2000/svg" xmlns:xlink="http://www.w3.org/1999/xlink" xml:space="preserve" xmlns:serif="http://www.serif.com/" style="fill-rule:evenodd;clip-rule:evenodd;stroke-linejoin:round;stroke-miterlimit:2;">
    <g transform="matrix(1,0,0,1,-466.620832,-1517.261755)">
        <g transform="matrix(1,0,0,1,-41.947564,38.744015)">
            <g transform="matrix(0.058758,0,0,0.058758,503.130873,1473.08146)">
                <path d="M122.709,416.285C97.992,374.152 87.975,328.904 94.472,281.05C104.774,205.172 144.568,148.791 213.136,114.627C338.44,52.193 490.575,128.131 517.146,265.486C538.823,377.541 470.483,486.026 360.194,514.633C268.64,538.381 173.262,498.978 122.709,416.285M400.555,297.796C401.849,287.631 398.1,279.778 389.334,274.611C381.076,269.744 371.294,270.958 363.316,277.553C353.687,285.512 344.158,293.593 334.562,301.594C333.639,302.363 332.55,302.933 331.094,303.886C331.094,301.532 331.093,299.881 331.094,298.231C331.097,266.401 331.21,234.571 330.973,202.743C330.941,198.411 329.937,193.712 328.039,189.842C323.212,179.999 312.089,175.319 301.508,177.856C290.567,180.478 283.012,189.64 282.977,200.915C282.879,232.578 282.942,264.241 282.942,295.904L282.942,304.406C280.585,302.526 279.199,301.466 277.864,300.347C268.8,292.753 259.784,285.1 250.679,277.555C240.503,269.122 226.58,270.036 218.492,279.568C210.278,289.248 211.468,303.101 221.577,311.645C245.107,331.532 268.716,351.326 292.391,371.041C301.46,378.594 313.028,378.307 322.099,370.696C345.318,351.213 368.516,331.705 391.773,312.267C396.155,308.604 399.229,304.251 400.555,297.796M372.481,436.904C375.145,436.903 377.81,436.937 380.473,436.893C392.007,436.705 400.743,428.32 400.895,417.318C401.045,406.472 392.322,397.454 380.852,397.417C331.739,397.256 282.625,397.255 233.512,397.325C224.084,397.339 216.678,402.874 214.123,411.064C209.95,424.445 219.484,436.868 234.136,436.886C279.92,436.941 325.703,436.905 372.481,436.904Z" style="fill:rgb(218,218,218);fill-rule:nonzero;"/>
            </g>
        </g>
    </g>
</svg>
