<?xml version="1.0" encoding="UTF-8" standalone="no"?><!DOCTYPE svg PUBLIC "-//W3C//DTD SVG 1.1//EN" "http://www.w3.org/Graphics/SVG/1.1/DTD/svg11.dtd"><svg width="100%" height="100%" viewBox="0 0 1542 1271" version="1.1" xmlns="http://www.w3.org/2000/svg" xmlns:xlink="http://www.w3.org/1999/xlink" xml:space="preserve" xmlns:serif="http://www.serif.com/" style="fill-rule:evenodd;clip-rule:evenodd;stroke-linejoin:round;stroke-miterlimit:2;"><g><path d="M85.125,203.508l1369.412,0c22.929,0 43.763,9.367 58.846,24.45c15.088,15.083 24.45,35.917 24.45,58.846l0,32.246c-46.737,110.425 -168.696,198.271 -263.654,263.496c-112.888,77.546 -256.029,123.346 -404.817,137.425l0,-27.367c0,-24.492 -10.004,-46.742 -26.121,-62.854c-16.108,-16.117 -38.358,-26.117 -62.85,-26.117l-21.117,0c-24.492,0 -46.742,10.004 -62.858,26.117c-16.113,16.113 -26.117,38.363 -26.117,62.854l0,27.367c-148.779,-14.071 -291.921,-59.867 -404.808,-137.408c-94.958,-65.229 -216.921,-153.083 -263.663,-263.513l-0,-32.246c0,-22.929 9.367,-43.763 24.45,-58.846c15.083,-15.083 35.917,-24.45 58.846,-24.45Zm1452.708,209.658c-62.192,84.529 -156.921,154.171 -236.654,208.942c-120.825,83 -273.646,131.65 -431.817,145.983l0,49.042c0,24.492 -10.004,46.742 -26.121,62.854c-16.108,16.112 -38.358,26.117 -62.85,26.117l-21.117,0c-24.492,0 -46.742,-10.004 -62.858,-26.117c-16.113,-16.113 -26.117,-38.363 -26.117,-62.854l0,-49.037c-158.162,-14.321 -310.979,-62.971 -431.808,-145.971c-79.738,-54.775 -174.471,-124.421 -236.662,-208.954l0,645.542l1536.004,0l0,-645.546Zm0,693.55l0,77.671c0,22.933 -9.362,43.762 -24.45,58.846c-15.083,15.088 -35.917,24.45 -58.846,24.45l-1369.412,0c-22.929,0 -43.762,-9.363 -58.846,-24.45c-15.083,-15.083 -24.45,-35.912 -24.45,-58.846l-0,-77.671l1536.004,0Z" style="fill:#fff;fill-rule:nonzero;"/><path d="M566.008,0.987l407.646,0c13.258,0 24,10.746 24,24l0,154.521l-455.646,0l0,-154.521c0,-13.254 10.746,-24 24,-24Z" style="fill:#fff;fill-rule:nonzero;"/></g></svg>